HIERARCHY
ROOT Hips
{
	OFFSET -3.958830 18.904000 13.208200
	CHANNELS 6 Xposition Yposition Zposition Zrotation Yrotation Xrotation 
	JOINT LHipJoint
	{
		OFFSET 0.000000 0.000000 0.000000
		CHANNELS 3 Zrotation Yrotation Xrotation
		JOINT LeftUpLeg
		{
			OFFSET 1.800000 -1.400000 0.085000
			CHANNELS 3 Zrotation Yrotation Xrotation
			JOINT LeftLeg
			{
				OFFSET 2.215000 -6.000000 0.000000
				CHANNELS 3 Zrotation Yrotation Xrotation
				JOINT LeftFoot
				{
					OFFSET 2.500000 -6.900000 0.000000
					CHANNELS 3 Zrotation Yrotation Xrotation
					JOINT LeftToeBase
					{
						OFFSET 0.200000 -0.500000 1.950000
						CHANNELS 3 Zrotation Yrotation Xrotation
						End Site
						{
							OFFSET 0.000000 0.000000 0.000000
						}
					}
				}
			}
		}
	}
	JOINT RHipJoint
	{
		OFFSET 0.000000 0.000000 0.000000
		CHANNELS 3 Zrotation Yrotation Xrotation
		JOINT RightUpLeg
		{
			OFFSET -1.800000 -1.400000 0.085000
			CHANNELS 3 Zrotation Yrotation Xrotation
			JOINT RightLeg
			{
				OFFSET -2.215000 -6.000000 0.000000
				CHANNELS 3 Zrotation Yrotation Xrotation
				JOINT RightFoot
				{
					OFFSET -2.500000 -6.900000 0.000000
					CHANNELS 3 Zrotation Yrotation Xrotation
					JOINT RightToeBase
					{
						OFFSET -0.200000 -0.500000 1.950000
						CHANNELS 3 Zrotation Yrotation Xrotation
						End Site
						{
							OFFSET 0.000000 0.000000 0.000000
						}
					}
				}
			}
		}
	}
	JOINT LowerBack
	{
		OFFSET 0.000000 0.000000 0.000000
		CHANNELS 3 Zrotation Yrotation Xrotation
		JOINT Spine
		{
			OFFSET -0.087000 1.940000 -0.288900
			CHANNELS 3 Zrotation Yrotation Xrotation
			JOINT Spine1
			{
				OFFSET 0.000000 1.950000 0.060000
				CHANNELS 3 Zrotation Yrotation Xrotation
				JOINT Neck
				{
					OFFSET 0.000000 0.000000 0.000000
					CHANNELS 3 Zrotation Yrotation Xrotation
					JOINT Neck1
					{
						OFFSET 0.000000 1.600000 0.340000
						CHANNELS 3 Zrotation Yrotation Xrotation
						JOINT Head
						{
							OFFSET 0.000000 1.667000 -0.240000
							CHANNELS 3 Zrotation Yrotation Xrotation
							End Site
							{
								OFFSET 0.000000 0.000000 0.000000
							}
						}
					}
				}
				JOINT LeftShoulder
				{
					OFFSET 0.000000 0.000000 0.000000
					CHANNELS 3 Zrotation Yrotation Xrotation
					JOINT LeftArm
					{
						OFFSET 2.700000 1.550000 -0.730000
						CHANNELS 3 Zrotation Yrotation Xrotation
						JOINT LeftForeArm
						{
							OFFSET 5.450000 0.000000 0.000000
							CHANNELS 3 Zrotation Yrotation Xrotation
							JOINT LeftHand
							{
								OFFSET 3.450000 0.000000 0.000000
								CHANNELS 3 Zrotation Yrotation Xrotation
								JOINT LeftHandIndex1
								{
									OFFSET 0.750000 0.000000 0.000000
									CHANNELS 3 Zrotation Yrotation Xrotation
									End Site
									{
										OFFSET 0.000000 0.000000 0.000000
									}
								}
							}
						}
					}
				}
				JOINT RightShoulder
				{
					OFFSET 0.000000 0.000000 0.000000
					CHANNELS 3 Zrotation Yrotation Xrotation
					JOINT RightArm
					{
						OFFSET -2.700000 1.550000 -0.730000
						CHANNELS 3 Zrotation Yrotation Xrotation
						JOINT RightForeArm
						{
							OFFSET -5.450000 0.000000 0.000000
							CHANNELS 3 Zrotation Yrotation Xrotation
							JOINT RightHand
							{
								OFFSET -3.450000 0.000000 0.000000
								CHANNELS 3 Zrotation Yrotation Xrotation
								JOINT RightHandIndex1
								{
									OFFSET -0.750000 0.000000 0.000000
									CHANNELS 3 Zrotation Yrotation Xrotation
									End Site
									{
										OFFSET 0.000000 0.000000 0.000000
									}
								}
							}
						}
					}
				}
			}
		}
	}
}
MOTION
Frames: 12
Frame Time: 0.016667
-0.719420 17.709100 -13.096160 -6.579143 22.292106 -4.990178 -15.114533 13.432523 2.543455 4.471688 -2.711848 -16.351522 1.963792 6.493849 38.708683 -0.321563 6.203546 2.111162 1.258370 0.960400 1.085490 18.320629 -9.747277 4.638760 5.442184 9.700201 -38.409770 4.187080 -2.239266 10.119297 -0.355713 -0.576563 3.898359 0.488510 -0.454480 0.251310 -4.246974 -2.154966 -8.608780 16.256445 -5.984156 30.372139 -3.829495 -1.340514 13.556272 2.211337 -1.066643 -16.109254 -8.656755 -0.908461 57.712015 9.377850 -4.129180 -34.181110 -20.047849 -37.255626 8.352786 -53.059072 -42.262848 4.425087 -16.891899 -30.910102 1.544406 -2.863104 3.154538 1.048680 -0.529720 0.651470 0.206590 15.892179 38.095087 9.353949 52.974422 31.125863 -7.650384 13.590035 33.191084 -0.001049 2.048562 -1.426604 0.079540 0.239420 -0.446310 -0.293550 
-0.746020 17.726570 -13.092100 -6.455507 23.468511 -5.209331 -15.137120 13.505785 2.554607 3.934015 -2.731362 -16.543724 3.161295 5.918994 38.668757 -0.309053 6.040170 2.168610 1.255000 0.992870 1.052940 18.285267 -9.763076 4.638510 4.617836 9.745191 -38.913582 4.478243 -2.677672 13.913387 -0.380582 -0.835127 3.814784 0.499400 -0.450210 0.226340 -4.210692 -2.250895 -8.587767 15.798140 -6.183361 30.830561 -3.716475 -1.602300 13.669278 2.231182 -0.904716 -16.360280 -8.330875 -0.737737 58.293906 10.200390 -4.129820 -33.248960 -21.099323 -37.523813 8.468208 -52.523675 -40.988857 3.292393 -16.880071 -30.420768 1.433333 -2.838896 3.169660 1.016670 -0.529180 0.646000 0.219970 16.913527 38.240172 9.494453 51.760494 30.340320 -8.371798 14.066227 33.885493 0.100736 2.048943 -1.431877 0.091720 0.242260 -0.458250 -0.269240 
-0.777890 17.736750 -13.077070 -5.943445 26.063286 -5.245365 -15.186027 13.586073 2.626832 2.379283 -3.068968 -16.980594 5.494176 4.765042 39.118965 -0.306745 5.940128 2.239276 1.213910 0.936500 1.020600 18.225736 -9.773672 4.586960 2.588064 9.545136 -39.648292 5.843217 -3.935499 20.632276 -0.466314 -1.597389 3.563148 0.464210 -0.400290 0.225540 -4.154741 -2.446099 -8.551799 15.407896 -6.726839 31.361825 -3.621055 -2.251570 12.476122 2.427126 -0.841831 -15.938892 -8.180403 -0.625007 58.845398 10.428580 -4.426360 -32.176290 -22.455245 -36.560654 8.258523 -53.230417 -38.863670 2.767965 -17.363816 -29.272125 1.341905 -2.872305 3.144415 1.013800 -0.503330 0.621300 0.229930 17.891206 37.216088 9.123512 51.077223 29.017286 -8.140054 15.762536 33.403708 0.626401 2.071364 -1.385025 0.072120 0.265420 -0.439390 -0.260990 
-0.819880 17.747960 -13.056470 -5.920947 28.475617 -5.298665 -15.260764 13.635063 2.659515 1.486647 -3.396734 -17.491474 7.716824 3.589060 39.133786 -0.336684 5.801750 2.269417 1.224030 0.951260 1.028210 18.164826 -9.697221 4.600958 1.900798 9.620597 -40.572552 5.878052 -5.325109 28.070308 -0.618985 -2.653793 3.172424 0.472650 -0.406240 0.261530 -4.024361 -2.713960 -8.559156 14.723408 -7.007569 31.260002 -2.506725 -3.055025 12.654864 2.635977 -0.077300 -15.662816 -6.193526 -1.447201 58.727985 8.926040 -4.255140 -31.350540 -21.921935 -36.490107 8.361228 -53.599624 -38.592068 2.683055 -16.198820 -28.615564 0.926897 -2.906703 3.170016 0.994010 -0.475570 0.623540 0.219780 17.030122 36.639254 8.651466 50.315902 28.903730 -7.813264 16.781607 33.161357 0.903110 2.071720 -1.395610 0.094860 0.233630 -0.431530 -0.263590 
-0.847980 17.755880 -13.035430 -5.127656 30.252014 -5.012136 -15.340872 13.665604 2.711687 -0.070655 -3.550063 -17.452544 9.629876 2.660462 38.825504 -0.358583 5.656950 2.317541 1.224260 0.956310 1.041480 18.098123 -9.595942 4.626910 0.138156 9.661574 -41.327693 7.017561 -7.118484 34.832572 -0.822436 -3.896277 2.730388 0.480740 -0.426010 0.245750 -3.841102 -2.995826 -8.611755 13.050310 -6.970630 31.496314 -1.611113 -3.644039 12.770349 2.815669 0.555299 -15.908135 -4.568367 -2.098991 59.450411 8.505520 -4.181590 -31.485220 -21.525774 -36.739135 8.687263 -54.139646 -37.604237 1.915539 -14.978297 -28.440610 0.421348 -2.882878 3.159130 1.008220 -0.486780 0.631170 0.205090 16.389425 36.677736 8.583806 49.966242 29.394071 -7.465657 15.164558 33.194056 0.664955 2.067756 -1.364966 0.084370 0.241190 -0.429800 -0.277960 
-0.865790 17.766890 -13.015750 -4.742352 31.640459 -4.833331 -15.383782 13.643015 2.685985 -0.712778 -3.655370 -17.166093 10.757840 2.056857 38.092235 -0.414415 5.518653 2.365816 1.255560 0.992960 1.062950 18.081518 -9.468841 4.702068 -1.459797 9.804233 -42.182043 8.717344 -9.478548 41.403064 -1.090816 -5.341739 2.233127 0.523170 -0.431750 0.234630 -3.761675 -3.199333 -8.674675 12.201559 -7.334353 31.362328 -0.974261 -4.540823 14.172473 2.724013 0.834750 -16.534233 -3.776479 -2.172442 59.702624 8.342000 -3.962710 -31.533410 -20.868593 -38.033805 9.139725 -52.432318 -38.152428 1.570012 -13.110000 -28.116480 -0.000122 -2.859327 3.132371 1.020860 -0.489230 0.636330 0.210150 15.997259 37.589174 8.667742 48.663321 30.677871 -6.936907 10.977740 32.393549 -0.097624 2.028104 -1.338246 0.068550 0.265980 -0.436720 -0.289630 
-0.893700 17.757920 -12.993750 -5.252446 31.869619 -5.231196 -15.376702 13.567888 2.558578 0.103100 -3.640427 -17.056477 10.867613 2.043405 38.127345 -0.491075 5.575813 2.315718 1.272060 1.002230 1.062450 18.123666 -9.360365 4.828002 -1.769367 10.515554 -42.605582 9.707062 -11.743333 47.590525 -1.375206 -6.745389 1.758802 0.556780 -0.426090 0.249850 -3.811786 -3.194735 -8.723198 12.596755 -7.649692 31.274971 -0.971561 -4.919789 15.613365 2.609894 0.867212 -16.730917 -3.477716 -2.000439 59.107820 8.746620 -3.768030 -31.936450 -20.149181 -38.850039 9.297687 -50.009622 -39.034842 1.295004 -12.089431 -29.137766 -0.142934 -2.871052 3.118690 1.042410 -0.480290 0.624410 0.191980 15.550308 38.110688 8.612700 47.011907 32.238241 -6.407029 8.365501 32.119520 -0.488341 1.975717 -1.320672 0.051530 0.266540 -0.405230 -0.308030 
-0.912380 17.738100 -12.981710 -5.586224 31.727266 -5.661315 -15.365820 13.467293 2.419433 0.720844 -3.580343 -16.727751 10.795046 2.181760 38.557325 -0.502020 5.698360 2.284127 1.301920 1.028690 1.077800 18.180599 -9.200890 5.001691 -2.276442 11.399752 -43.637340 10.221951 -14.317222 54.742411 -1.746744 -8.327508 1.285179 0.583960 -0.401140 0.250900 -3.867027 -3.210871 -8.796861 13.149886 -7.905797 31.706080 -1.129657 -5.102401 16.422229 2.399393 0.730796 -16.702004 -3.829298 -1.770761 58.077894 9.677810 -3.684000 -33.019380 -19.613225 -39.371250 9.115687 -46.995773 -40.560455 1.805459 -11.582779 -29.399073 0.042593 -2.880528 3.052291 1.059400 -0.478820 0.627610 0.210030 15.419984 38.357421 8.495059 44.674913 33.396092 -6.119429 6.492100 32.493687 -0.709353 1.937833 -1.281665 0.038140 0.307540 -0.410420 -0.305310 
-0.946500 17.729310 -12.964380 -4.843243 30.911295 -5.927751 -15.424074 13.538678 2.360422 1.175330 -3.354530 -15.813009 9.663307 2.808338 38.352003 -0.464104 5.681157 2.279524 1.356270 1.115870 1.118010 18.128253 -9.047019 5.115669 -2.716774 11.946737 -43.970894 9.666641 -16.189960 61.293359 -2.094513 -9.655388 0.902971 0.616840 -0.449170 0.252700 -3.626710 -3.536225 -8.884825 11.344059 -7.003331 33.258342 -0.096178 -4.742567 17.363138 2.171838 1.149387 -17.322896 -3.019185 -2.170280 57.676995 9.273940 -3.136900 -34.140290 -19.028513 -40.460446 9.074084 -41.151740 -42.442466 1.191209 -11.353676 -32.381098 0.691648 -2.818918 3.021726 1.045170 -0.501040 0.668870 0.221700 15.280206 39.350573 8.725807 40.442437 34.640466 -6.030678 3.165610 32.349174 -1.170141 1.919420 -1.272131 0.079330 0.290450 -0.457180 -0.296740 
-0.961170 17.705100 -12.952840 -4.244673 31.034682 -6.247542 -15.462877 13.548994 2.371632 1.401763 -3.624586 -15.207438 8.609879 3.254272 38.768716 -0.452646 5.824409 2.230967 1.325480 1.099590 1.092610 18.093286 -8.968482 5.118025 -3.492226 11.397346 -44.584746 8.788943 -18.467828 67.616553 -2.395215 -11.012098 0.552697 0.608000 -0.419560 0.260180 -3.485310 -3.768746 -8.944306 10.657703 -6.538949 34.522793 0.736477 -4.628169 17.969863 1.776739 1.606427 -17.556765 -2.356487 -3.028526 56.086119 8.309340 -3.137950 -34.230580 -17.085191 -41.804738 8.610787 -34.026312 -45.386733 0.559981 -9.937636 -36.386245 1.395682 -2.823572 2.929302 1.019510 -0.460110 0.645650 0.207210 14.031210 39.987630 9.041346 36.260498 33.722138 -7.651927 1.428335 34.714721 -1.595102 1.823331 -1.264595 0.076090 0.298810 -0.427510 -0.294900 
-0.976670 17.676870 -12.937690 -4.214147 30.938135 -6.527244 -15.467271 13.538752 2.319026 2.062966 -3.724533 -14.868303 7.768617 3.628862 38.705174 -0.422343 5.929699 2.226278 1.279670 1.009240 1.069660 18.099591 -8.871928 5.183113 -4.090767 11.259541 -45.424126 8.260735 -20.890164 73.345508 -2.685400 -12.292631 0.229818 0.556170 -0.369290 0.303770 -3.460947 -3.923352 -8.985713 11.141660 -6.607458 35.795674 0.914681 -4.568273 16.976498 1.423907 1.556111 -17.050265 -2.874538 -3.243006 54.026468 7.797100 -3.422030 -32.780430 -15.267639 -42.755777 7.336030 -27.641162 -46.788259 -0.230113 -7.941475 -39.812274 1.785529 -2.840170 2.939903 0.989790 -0.412750 0.602930 0.209860 12.760700 40.309287 9.084538 31.351168 31.599505 -8.397491 3.952919 37.025353 -0.600237 1.781905 -1.301027 0.073420 0.262670 -0.404880 -0.292140 
-0.981830 17.675270 -12.926540 -4.911957 30.717713 -7.010106 -15.417667 13.430093 2.150120 3.037879 -3.537558 -14.458376 7.224716 3.933671 38.339867 -0.395637 5.961055 2.251755 1.182180 0.909220 0.949790 18.187369 -8.801540 5.270828 -4.808572 11.473985 -46.326685 8.759587 -23.590369 77.519877 -2.908815 -13.395396 -0.006422 0.505290 -0.282420 0.296270 -3.645050 -3.808678 -8.926497 13.299507 -7.586329 36.315093 0.473436 -5.076315 15.344871 1.027767 0.602306 -14.799981 -4.969584 -3.196580 51.060954 8.170440 -4.443370 -31.077190 -12.102106 -41.819957 5.139452 -23.893562 -45.287757 -2.926242 -3.355694 -48.876967 -0.080436 -2.818626 3.085435 0.923290 -0.355500 0.514350 0.221700 10.413499 39.158770 8.745989 27.326813 29.387651 -9.189764 7.665852 42.296526 0.836002 1.753462 -1.352599 0.050540 0.253760 -0.356140 -0.259560 
